<svg width="29" height="30" viewBox="0 0 29 30" fill="none" xmlns="http://www.w3.org/2000/svg">
<path d="M13.5001 16.3327V8.33268C13.5001 7.7804 13.9478 7.33268 14.5001 7.33268C15.0524 7.33268 15.5001 7.7804 15.5001 8.33268V16.3327C15.5001 16.885 15.0524 17.3327 14.5001 17.3327C13.9478 17.3327 13.5001 16.885 13.5001 16.3327Z" fill="#D11313"/>
<path d="M13.7696 20.9954C14.1391 20.5849 14.7719 20.5518 15.1824 20.9212C15.5929 21.2907 15.6261 21.9235 15.2566 22.334L15.2436 22.3483C14.8741 22.7588 14.2413 22.792 13.8308 22.4225C13.4205 22.053 13.3872 21.4202 13.7566 21.0098L13.7696 20.9954Z" fill="#D11313"/>
<path d="M26.8334 14.9993C26.8334 8.18784 21.3116 2.66602 14.5001 2.66602C7.68857 2.66602 2.16675 8.18784 2.16675 14.9993C2.16675 21.8109 7.68857 27.3327 14.5001 27.3327C21.3116 27.3327 26.8334 21.8109 26.8334 14.9993ZM28.8334 14.9993C28.8334 22.9154 22.4162 29.3327 14.5001 29.3327C6.584 29.3327 0.166748 22.9154 0.166748 14.9993C0.166748 7.08327 6.584 0.666016 14.5001 0.666016C22.4162 0.666016 28.8334 7.08327 28.8334 14.9993Z" fill="#D11313"/>
</svg>
