<svg class="brxe-svg" id="brxe-ktcmju" xmlns="http://www.w3.org/2000/svg" width="141" height="39" viewBox="0 0 141 39" fill="none"><g clip-path="url(#clip0_2297_17803)"><path d="M55.6986 29.1394L49.4204 20.8103V29.1394H44.8712V10.2759H49.4204V18.552L55.6449 10.2759H60.9915L53.7561 19.5189L61.2577 29.1383H55.6975L55.6986 29.1394Z" fill="#4B4BBC"></path><path d="M62.9737 17.558C63.55 16.3942 64.3345 15.4987 65.3283 14.8714C66.321 14.2441 67.4296 13.9304 68.6531 13.9304C69.6994 13.9304 70.617 14.1456 71.4058 14.575C72.1946 15.0055 72.802 15.569 73.2281 16.2677V14.1446H77.7773V29.1382H73.2281V27.0151C72.7848 27.7138 72.1678 28.2784 71.379 28.7078C70.5891 29.1382 69.6715 29.3524 68.6262 29.3524C67.42 29.3524 66.321 29.0344 65.3272 28.3985C64.3335 27.7625 63.549 26.8583 62.9727 25.6848C62.3964 24.5113 62.1077 23.1551 62.1077 21.6138C62.1077 20.0726 62.3953 18.7207 62.9727 17.5569L62.9737 17.558ZM72.2847 18.9283C71.6548 18.2653 70.8885 17.9344 69.9838 17.9344C69.0791 17.9344 68.3118 18.261 67.6829 18.9153C67.0529 19.5697 66.7385 20.4695 66.7385 21.616C66.7385 22.7624 67.0529 23.672 67.6829 24.3437C68.3118 25.0153 69.0791 25.3517 69.9838 25.3517C70.8885 25.3517 71.6548 25.0207 72.2847 24.3577C72.9136 23.6948 73.2291 22.7906 73.2291 21.6441C73.2291 20.4977 72.9136 19.5935 72.2847 18.9305V18.9283Z" fill="#4B4BBC"></path><path d="M83.257 28.6818C82.2461 28.2341 81.4476 27.6208 80.8627 26.841C80.2779 26.0623 79.9495 25.1884 79.8786 24.2215H84.3742C84.4279 24.7417 84.6672 25.1613 85.0922 25.4847C85.5182 25.807 86.0409 25.9682 86.6623 25.9682C87.23 25.9682 87.6689 25.8568 87.9791 25.6318C88.2892 25.4079 88.4448 25.117 88.4448 24.759C88.4448 24.3285 88.2227 24.0116 87.7795 23.8051C87.3362 23.5996 86.6172 23.3714 85.6245 23.1194C84.5599 22.8684 83.6734 22.6045 82.9641 22.3266C82.2547 22.0486 81.643 21.6106 81.1289 21.0103C80.6138 20.41 80.3573 19.6 80.3573 18.579C80.3573 17.7191 80.5923 16.9361 81.0624 16.2277C81.5324 15.5203 82.2236 14.9601 83.1368 14.548C84.0501 14.1359 85.1362 13.9304 86.395 13.9304C88.257 13.9304 89.7241 14.3966 90.7973 15.3278C91.8705 16.259 92.4865 17.4952 92.6464 19.0354H88.4438C88.3729 18.5162 88.1465 18.1042 87.7655 17.7992C87.3834 17.4952 86.8833 17.3427 86.263 17.3427C85.7307 17.3427 85.3229 17.4466 85.0396 17.6521C84.7552 17.8586 84.6135 18.1409 84.6135 18.4989C84.6135 18.9294 84.84 19.2517 85.2918 19.4658C85.7436 19.6811 86.4487 19.8963 87.4071 20.1105C88.506 20.3971 89.4021 20.6794 90.0933 20.9573C90.7855 21.2353 91.3918 21.683 91.9155 22.3006C92.4382 22.9182 92.7086 23.7477 92.7269 24.786C92.7269 25.6643 92.4833 26.4473 91.995 27.1374C91.5066 27.8274 90.8069 28.3693 89.8936 28.7629C88.9804 29.1566 87.92 29.3546 86.7149 29.3546C85.4206 29.3546 84.268 29.1307 83.257 28.6829V28.6818Z" fill="#4B4BBC"></path><path d="M111.826 29.1394H107.277L99.6693 17.505V29.1394H95.1201V10.2759H99.6693L107.277 21.9643V10.2759H111.826V29.1383V29.1394Z" fill="#4B4BBC"></path><path d="M128.639 22.7441H118.344C118.415 23.6753 118.712 24.388 119.235 24.8801C119.757 25.3733 120.4 25.6188 121.163 25.6188C122.298 25.6188 123.087 25.1354 123.531 24.1674H128.372C128.123 25.1527 127.675 26.0396 127.028 26.828C126.381 27.6165 125.57 28.2341 124.594 28.6818C123.619 29.1296 122.528 29.3535 121.322 29.3535C119.868 29.3535 118.572 29.0398 117.438 28.4125C116.303 27.7852 115.416 26.8897 114.778 25.7259C114.139 24.5622 113.82 23.2005 113.82 21.6419C113.82 20.0834 114.135 18.7217 114.765 17.558C115.394 16.3942 116.277 15.4987 117.411 14.8714C118.546 14.2441 119.85 13.9304 121.322 13.9304C122.794 13.9304 124.035 14.2354 125.152 14.8443C126.269 15.4533 127.143 16.3218 127.773 17.4509C128.402 18.579 128.717 19.8963 128.717 21.4008C128.717 21.8312 128.691 22.279 128.638 22.7441H128.639ZM124.064 20.1916C124.064 19.4031 123.798 18.7769 123.266 18.3107C122.733 17.8457 122.069 17.6121 121.27 17.6121C120.472 17.6121 119.865 17.8359 119.342 18.2837C118.818 18.7315 118.495 19.3674 118.371 20.1916H124.064Z" fill="#4B4BBC"></path><path d="M138.987 25.2426V29.1384H136.672C135.022 29.1384 133.737 28.7306 132.815 27.9162C131.893 27.1018 131.431 25.7715 131.431 23.9264V17.9616H129.623V14.1458H131.431V10.4912H135.981V14.1458H138.96V17.9616H135.981V23.9804C135.981 24.4282 136.087 24.7505 136.299 24.9474C136.512 25.1442 136.867 25.2426 137.363 25.2426H138.986H138.987Z" fill="#4B4BBC"></path><path d="M138.957 32.1731H83.9031C82.9453 32.1731 82.1688 32.9556 82.1688 33.9209V37.2521C82.1688 38.2174 82.9453 38.9999 83.9031 38.9999H138.957C139.914 38.9999 140.691 38.2174 140.691 37.2521V33.9209C140.691 32.9556 139.914 32.1731 138.957 32.1731Z" fill="#F9CB00"></path><path d="M84.6618 34.3762V35.3442H85.7919V35.7855H84.6618V36.7967H85.9335V37.238H84.1252V33.9338H85.9335V34.3751H84.6618V34.3762Z" fill="#4B4BBC"></path><path d="M88.4513 34.7083C88.6133 34.7937 88.7389 34.9203 88.8301 35.0879C88.9213 35.2556 88.9664 35.4578 88.9664 35.6958V37.2381H88.4341V35.7758C88.4341 35.5411 88.3761 35.3616 88.2602 35.2372C88.1443 35.1117 87.9855 35.0501 87.7848 35.0501C87.5841 35.0501 87.4242 35.1128 87.3072 35.2372C87.1892 35.3626 87.1302 35.5422 87.1302 35.7758V37.2381H86.5936V34.6229H87.1302V34.9214C87.2182 34.8143 87.3309 34.7299 87.4671 34.6694C87.6034 34.6088 87.7494 34.5796 87.9029 34.5796C88.1068 34.5796 88.2903 34.6218 88.4513 34.7083Z" fill="#4B4BBC"></path><path d="M90.8584 35.2188C90.9668 35.0144 91.117 34.8576 91.3081 34.7462C91.4991 34.6358 91.7191 34.5796 91.967 34.5796C92.2815 34.5796 92.5412 34.6542 92.7462 34.8046C92.9522 34.9549 93.0906 35.169 93.1626 35.4481H92.583C92.5358 35.3183 92.4607 35.2166 92.3566 35.1442C92.2525 35.0717 92.1226 35.0349 91.9659 35.0349C91.7459 35.0349 91.571 35.1128 91.4412 35.2696C91.3113 35.4265 91.2458 35.6449 91.2458 35.9272C91.2458 36.2095 91.3113 36.4291 91.4412 36.587C91.5721 36.7449 91.747 36.8238 91.9659 36.8238C92.2772 36.8238 92.4821 36.6865 92.583 36.4107H93.1626C93.0874 36.6767 92.9458 36.8876 92.7386 37.0445C92.5315 37.2013 92.2739 37.2792 91.9659 37.2792C91.718 37.2792 91.498 37.2229 91.307 37.1104C91.116 36.998 90.9657 36.8401 90.8573 36.6356C90.7489 36.4312 90.6953 36.1954 90.6953 35.9261C90.6953 35.6568 90.7489 35.42 90.8573 35.2166L90.8584 35.2188Z" fill="#4B4BBC"></path><path d="M93.6841 35.221C93.7925 35.0187 93.9395 34.8608 94.1263 34.7483C94.313 34.6358 94.5191 34.5796 94.7455 34.5796C94.9494 34.5796 95.1276 34.6196 95.28 34.7007C95.4323 34.7818 95.5536 34.8824 95.6448 35.0025V34.6229H96.1868V37.2381H95.6448V36.8487C95.5536 36.972 95.4302 37.0747 95.2724 37.1569C95.1158 37.2391 94.9365 37.2802 94.7358 37.2802C94.5126 37.2802 94.3087 37.2229 94.1231 37.1072C93.9374 36.9915 93.7914 36.8303 93.683 36.6227C93.5747 36.415 93.521 36.1803 93.521 35.9175C93.521 35.6547 93.5747 35.4221 93.683 35.2199L93.6841 35.221ZM95.5354 35.4589C95.4613 35.3259 95.3647 35.2242 95.2456 35.155C95.1265 35.0858 94.9977 35.0501 94.8593 35.0501C94.7208 35.0501 94.592 35.0847 94.4729 35.1517C94.3538 35.2199 94.2572 35.3194 94.1832 35.4502C94.1091 35.5822 94.0726 35.7379 94.0726 35.9175C94.0726 36.097 94.1091 36.256 94.1832 36.3923C94.2572 36.5286 94.3538 36.6324 94.4751 36.7038C94.5963 36.7752 94.724 36.8109 94.8593 36.8109C94.9945 36.8109 95.1265 36.7762 95.2456 36.7059C95.3647 36.6367 95.4613 36.534 95.5354 36.3999C95.6094 36.2657 95.6459 36.1078 95.6459 35.9272C95.6459 35.7466 95.6094 35.5898 95.5354 35.4567V35.4589Z" fill="#4B4BBC"></path><path d="M96.8779 35.221C96.9863 35.0187 97.1334 34.8608 97.3201 34.7484C97.5068 34.6359 97.715 34.5796 97.9436 34.5796C98.1132 34.5796 98.2806 34.6164 98.4448 34.691C98.6101 34.7657 98.741 34.8641 98.8386 34.9874V33.7241H99.3806V37.237H98.8386V36.8433C98.7506 36.9699 98.6294 37.0748 98.4738 37.157C98.3182 37.2392 98.14 37.2803 97.9393 37.2803C97.7129 37.2803 97.5068 37.223 97.3201 37.1072C97.1334 36.9915 96.9853 36.8304 96.8779 36.6227C96.7695 36.415 96.7159 36.1803 96.7159 35.9175C96.7159 35.6547 96.7695 35.4222 96.8779 35.2199V35.221ZM98.7281 35.4589C98.6541 35.3259 98.5575 35.2242 98.4384 35.155C98.3192 35.0858 98.1904 35.0501 98.052 35.0501C97.9136 35.0501 97.7848 35.0847 97.6657 35.1518C97.5465 35.2199 97.4499 35.3194 97.3759 35.4503C97.3018 35.5822 97.2654 35.738 97.2654 35.9175C97.2654 36.0971 97.3018 36.2561 97.3759 36.3923C97.4499 36.5286 97.5465 36.6324 97.6678 36.7038C97.7891 36.7752 97.9168 36.8109 98.052 36.8109C98.1872 36.8109 98.3192 36.7763 98.4384 36.706C98.5575 36.6368 98.6541 36.534 98.7281 36.3999C98.8022 36.2658 98.8386 36.1079 98.8386 35.9273C98.8386 35.7466 98.8022 35.5898 98.7281 35.4568V35.4589Z" fill="#4B4BBC"></path><path d="M100.071 35.221C100.179 35.0187 100.326 34.8608 100.513 34.7483C100.7 34.6358 100.906 34.5796 101.132 34.5796C101.336 34.5796 101.514 34.6196 101.667 34.7007C101.819 34.7818 101.94 34.8824 102.031 35.0025V34.6229H102.573V37.2381H102.031V36.8487C101.94 36.972 101.817 37.0747 101.659 37.1569C101.502 37.2391 101.323 37.2802 101.122 37.2802C100.899 37.2802 100.695 37.2229 100.51 37.1072C100.324 36.9915 100.178 36.8303 100.07 36.6227C99.9612 36.415 99.9076 36.1803 99.9076 35.9175C99.9076 35.6547 99.9612 35.4221 100.07 35.2199L100.071 35.221ZM101.922 35.4589C101.848 35.3259 101.751 35.2242 101.632 35.155C101.513 35.0858 101.384 35.0501 101.246 35.0501C101.107 35.0501 100.979 35.0847 100.859 35.1517C100.74 35.2199 100.644 35.3194 100.57 35.4502C100.496 35.5822 100.459 35.7379 100.459 35.9175C100.459 36.097 100.496 36.256 100.57 36.3923C100.644 36.5286 100.74 36.6324 100.862 36.7038C100.983 36.7752 101.111 36.8109 101.246 36.8109C101.381 36.8109 101.513 36.7762 101.632 36.7059C101.751 36.6367 101.848 36.534 101.922 36.3999C101.996 36.2657 102.032 36.1078 102.032 35.9272C102.032 35.7466 101.996 35.5898 101.922 35.4567V35.4589Z" fill="#4B4BBC"></path><path d="M105.355 34.6922C105.485 34.6176 105.641 34.5808 105.819 34.5808V35.1411H105.682C105.472 35.1411 105.313 35.1951 105.205 35.3022C105.096 35.4104 105.043 35.5964 105.043 35.8625V37.2393H104.506V34.6241H105.043V35.0037C105.121 34.8707 105.225 34.7668 105.356 34.6922H105.355Z" fill="#4B4BBC"></path><path d="M106.342 34.1772C106.276 34.1101 106.244 34.0279 106.244 33.9306C106.244 33.8332 106.277 33.75 106.342 33.684C106.408 33.618 106.489 33.5845 106.587 33.5845C106.685 33.5845 106.761 33.618 106.827 33.684C106.893 33.75 106.926 33.8332 106.926 33.9306C106.926 34.0279 106.893 34.1112 106.827 34.1772C106.761 34.2431 106.682 34.2767 106.587 34.2767C106.493 34.2767 106.408 34.2431 106.342 34.1772ZM106.851 34.6228V37.238H106.314V34.6228H106.851Z" fill="#4B4BBC"></path><path d="M109.416 34.7083C109.578 34.7937 109.704 34.9203 109.795 35.0879C109.886 35.2556 109.931 35.4578 109.931 35.6958V37.2381H109.399V35.7758C109.399 35.5411 109.341 35.3616 109.225 35.2372C109.109 35.1117 108.95 35.0501 108.75 35.0501C108.549 35.0501 108.389 35.1128 108.272 35.2372C108.154 35.3626 108.095 35.5422 108.095 35.7758V37.2381H107.558V34.6229H108.095V34.9214C108.183 34.8143 108.296 34.7299 108.432 34.6694C108.568 34.6088 108.714 34.5796 108.868 34.5796C109.072 34.5796 109.255 34.6218 109.416 34.7083Z" fill="#4B4BBC"></path><path d="M110.598 35.2188C110.706 35.0144 110.856 34.8576 111.047 34.7462C111.238 34.6358 111.458 34.5796 111.706 34.5796C112.021 34.5796 112.28 34.6542 112.485 34.8046C112.691 34.9549 112.83 35.169 112.902 35.4481H112.322C112.275 35.3183 112.2 35.2166 112.096 35.1442C111.992 35.0717 111.862 35.0349 111.705 35.0349C111.485 35.0349 111.31 35.1128 111.18 35.2696C111.05 35.4265 110.985 35.6449 110.985 35.9272C110.985 36.2095 111.05 36.4291 111.18 36.587C111.311 36.7449 111.486 36.8238 111.705 36.8238C112.016 36.8238 112.221 36.6865 112.322 36.4107H112.902C112.827 36.6767 112.685 36.8876 112.478 37.0445C112.271 37.2013 112.013 37.2792 111.705 37.2792C111.457 37.2792 111.237 37.2229 111.046 37.1104C110.855 36.998 110.705 36.8401 110.597 36.6356C110.488 36.4312 110.434 36.1954 110.434 35.9261C110.434 35.6568 110.488 35.42 110.597 35.2166L110.598 35.2188Z" fill="#4B4BBC"></path><path d="M113.902 37.1126C113.704 37.0001 113.549 36.8422 113.435 36.6378C113.322 36.4334 113.266 36.1976 113.266 35.9283C113.266 35.659 113.324 35.4265 113.439 35.221C113.555 35.0155 113.714 34.8576 113.915 34.7462C114.116 34.6358 114.34 34.5796 114.589 34.5796C114.838 34.5796 115.061 34.6348 115.263 34.7462C115.463 34.8565 115.622 35.0155 115.738 35.221C115.854 35.4265 115.912 35.6622 115.912 35.9283C115.912 36.1944 115.852 36.4301 115.733 36.6356C115.614 36.8411 115.451 37.0001 115.246 37.1126C115.04 37.2251 114.813 37.2813 114.565 37.2813C114.317 37.2813 114.099 37.2251 113.901 37.1126H113.902ZM114.955 36.7113C115.076 36.6443 115.174 36.5448 115.249 36.4128C115.324 36.2798 115.361 36.1187 115.361 35.9283C115.361 35.7379 115.325 35.5779 115.253 35.447C115.181 35.3151 115.085 35.2166 114.965 35.1507C114.846 35.0847 114.718 35.0511 114.579 35.0511C114.441 35.0511 114.313 35.0847 114.195 35.1507C114.077 35.2177 113.984 35.3161 113.915 35.447C113.846 35.5779 113.811 35.739 113.811 35.9283C113.811 36.2095 113.883 36.428 114.025 36.5805C114.168 36.7341 114.348 36.8109 114.564 36.8109C114.703 36.8109 114.831 36.7773 114.953 36.7113H114.955Z" fill="#4B4BBC"></path><path d="M115.239 33.921L114.198 34.4379V34.0388L115.239 33.4602V33.921Z" fill="#4B4BBC"></path><path d="M118.303 34.7083C118.465 34.7937 118.591 34.9203 118.682 35.0879C118.773 35.2556 118.818 35.4578 118.818 35.6958V37.2381H118.286V35.7758C118.286 35.5411 118.228 35.3616 118.112 35.2372C117.996 35.1117 117.837 35.0501 117.637 35.0501C117.436 35.0501 117.276 35.1128 117.159 35.2372C117.041 35.3626 116.982 35.5422 116.982 35.7758V37.2381H116.445V34.6229H116.982V34.9214C117.07 34.8143 117.183 34.7299 117.319 34.6694C117.455 34.6088 117.601 34.5796 117.755 34.5796C117.959 34.5796 118.142 34.6218 118.303 34.7083Z" fill="#4B4BBC"></path><path d="M120.71 35.221C120.819 35.0187 120.966 34.8608 121.152 34.7484C121.339 34.6359 121.547 34.5796 121.777 34.5796C121.947 34.5796 122.114 34.6164 122.278 34.691C122.443 34.7657 122.574 34.8641 122.671 34.9874V33.7241H123.213V37.237H122.671V36.8433C122.583 36.9699 122.462 37.0748 122.306 37.157C122.15 37.2392 121.972 37.2803 121.772 37.2803C121.545 37.2803 121.339 37.223 121.152 37.1072C120.966 36.9915 120.818 36.8304 120.71 36.6227C120.602 36.415 120.548 36.1803 120.548 35.9175C120.548 35.6547 120.602 35.4222 120.71 35.2199V35.221ZM122.562 35.4589C122.487 35.3259 122.391 35.2242 122.272 35.155C122.153 35.0858 122.024 35.0501 121.885 35.0501C121.747 35.0501 121.618 35.0847 121.499 35.1518C121.38 35.2199 121.283 35.3194 121.209 35.4503C121.135 35.5822 121.099 35.738 121.099 35.9175C121.099 36.0971 121.135 36.2561 121.209 36.3923C121.283 36.5286 121.38 36.6324 121.501 36.7038C121.622 36.7752 121.75 36.8109 121.885 36.8109C122.021 36.8109 122.153 36.7763 122.272 36.706C122.391 36.6357 122.487 36.534 122.562 36.3999C122.636 36.2658 122.672 36.1079 122.672 35.9273C122.672 35.7466 122.636 35.5898 122.562 35.4568V35.4589Z" fill="#4B4BBC"></path><path d="M126.28 36.1328H124.297C124.313 36.3416 124.389 36.5092 124.528 36.6357C124.666 36.7623 124.836 36.825 125.036 36.825C125.325 36.825 125.529 36.7028 125.649 36.4594H126.229C126.15 36.6996 126.008 36.8964 125.803 37.05C125.597 37.2036 125.341 37.2804 125.037 37.2804C124.788 37.2804 124.566 37.2241 124.371 37.1116C124.175 36.9991 124.021 36.8412 123.909 36.6368C123.798 36.4324 123.742 36.1966 123.742 35.9273C123.742 35.658 123.796 35.4211 123.904 35.2178C124.012 35.0134 124.165 34.8566 124.361 34.7452C124.558 34.6349 124.783 34.5786 125.037 34.5786C125.292 34.5786 125.5 34.6327 125.692 34.7398C125.884 34.8479 126.032 34.9983 126.14 35.1929C126.246 35.3876 126.299 35.6115 126.299 35.8646C126.299 35.963 126.293 36.0517 126.28 36.1307V36.1328ZM125.738 35.6959C125.735 35.4969 125.664 35.3368 125.526 35.2167C125.387 35.0967 125.217 35.0361 125.013 35.0361C124.827 35.0361 124.668 35.0956 124.537 35.2146C124.405 35.3335 124.327 35.4936 124.301 35.6959H125.738Z" fill="#4B4BBC"></path><path d="M127.363 33.7263V37.2392H126.826V33.7263H127.363Z" fill="#4B4BBC"></path><path d="M130.204 34.7041C130.36 34.6219 130.537 34.5808 130.736 34.5808C130.962 34.5808 131.168 34.6371 131.355 34.7495C131.542 34.862 131.689 35.0188 131.795 35.2222C131.901 35.4244 131.955 35.657 131.955 35.9198C131.955 36.1826 131.901 36.4173 131.795 36.625C131.689 36.8326 131.542 36.9938 131.355 37.1095C131.168 37.2252 130.962 37.2825 130.736 37.2825C130.539 37.2825 130.363 37.2425 130.209 37.1614C130.056 37.0803 129.93 36.9808 129.832 36.8597V38.4831H129.296V34.6241H129.832V35.0091C129.924 34.8891 130.047 34.7874 130.205 34.7052L130.204 34.7041ZM131.298 35.4515C131.224 35.3206 131.128 35.22 131.006 35.153C130.885 35.0848 130.756 35.0513 130.618 35.0513C130.479 35.0513 130.355 35.0859 130.234 35.1562C130.112 35.2254 130.016 35.3271 129.942 35.4601C129.868 35.5931 129.831 35.75 129.831 35.9306C129.831 36.1112 129.868 36.268 129.942 36.4032C130.016 36.5384 130.112 36.6401 130.234 36.7093C130.355 36.7785 130.483 36.8142 130.618 36.8142C130.753 36.8142 130.885 36.7785 131.006 36.7072C131.128 36.6358 131.224 36.5319 131.298 36.3957C131.372 36.2594 131.409 36.1015 131.409 35.9209C131.409 35.7402 131.372 35.5845 131.298 35.4536V35.4515Z" fill="#4B4BBC"></path><path d="M132.471 35.221C132.58 35.0187 132.728 34.8608 132.915 34.7483C133.101 34.6358 133.307 34.5796 133.534 34.5796C133.738 34.5796 133.916 34.6196 134.068 34.7007C134.221 34.7818 134.342 34.8824 134.433 35.0025V34.6229H134.975V37.2381H134.433V36.8487C134.342 36.972 134.219 37.0747 134.061 37.1569C133.904 37.2391 133.725 37.2802 133.523 37.2802C133.3 37.2802 133.096 37.2229 132.911 37.1072C132.726 36.9915 132.579 36.8303 132.47 36.6227C132.362 36.415 132.308 36.1803 132.308 35.9175C132.308 35.6547 132.362 35.4221 132.47 35.2199L132.471 35.221ZM134.323 35.4589C134.249 35.3259 134.152 35.2242 134.033 35.155C133.914 35.0858 133.785 35.0501 133.646 35.0501C133.508 35.0501 133.379 35.0847 133.26 35.1517C133.141 35.2199 133.044 35.3194 132.97 35.4502C132.896 35.5822 132.86 35.7379 132.86 35.9175C132.86 36.097 132.896 36.256 132.97 36.3923C133.044 36.5286 133.142 36.6324 133.262 36.7038C133.382 36.7752 133.511 36.8109 133.646 36.8109C133.782 36.8109 133.914 36.7762 134.033 36.7059C134.152 36.6367 134.249 36.534 134.323 36.3999C134.396 36.2657 134.433 36.1078 134.433 35.9272C134.433 35.7466 134.397 35.5898 134.323 35.4567V35.4589Z" fill="#4B4BBC"></path><path d="M136.435 33.921L135.394 34.4379V34.0388L136.435 33.4602V33.921ZM136.218 34.6229V37.2381H135.681V34.6229H136.218Z" fill="#4B4BBC"></path><path d="M137.318 37.17C137.156 37.0953 137.028 36.9947 136.934 36.866C136.839 36.7373 136.789 36.5946 136.783 36.4367H137.339C137.349 36.547 137.402 36.64 137.497 36.7146C137.593 36.7893 137.713 36.826 137.857 36.826C138 36.826 138.125 36.7968 138.208 36.7384C138.29 36.68 138.332 36.6043 138.332 36.5135C138.332 36.415 138.286 36.3426 138.194 36.295C138.101 36.2474 137.954 36.1955 137.754 36.1382C137.559 36.0841 137.401 36.0322 137.278 35.9813C137.156 35.9305 137.05 35.8526 136.961 35.7488C136.871 35.6439 136.826 35.5065 136.826 35.3356C136.826 35.1961 136.867 35.0696 136.949 34.9538C137.03 34.8381 137.147 34.7473 137.3 34.6813C137.452 34.6142 137.627 34.5818 137.824 34.5818C138.12 34.5818 138.358 34.6564 138.538 34.8068C138.718 34.9571 138.815 35.1615 138.828 35.4211H138.291C138.282 35.3043 138.234 35.2102 138.15 35.141C138.065 35.0717 137.95 35.036 137.806 35.036C137.662 35.036 137.556 35.0631 137.481 35.1172C137.406 35.1712 137.368 35.2426 137.368 35.3302C137.368 35.3994 137.393 35.4589 137.443 35.5054C137.494 35.553 137.555 35.5898 137.627 35.6168C137.699 35.6439 137.806 35.6774 137.948 35.7185C138.136 35.7693 138.291 35.8202 138.411 35.8732C138.532 35.9251 138.637 36.0019 138.725 36.1035C138.813 36.2052 138.858 36.3393 138.862 36.507C138.862 36.6562 138.821 36.7882 138.74 36.9061C138.658 37.0229 138.542 37.1148 138.393 37.1819C138.244 37.2489 138.069 37.2814 137.868 37.2814C137.668 37.2814 137.482 37.2446 137.32 37.17H137.318Z" fill="#4B4BBC"></path><path d="M35.69 16.6658C35.69 7.67912 28.3955 0.409949 19.4473 0.544063C10.8907 0.671687 3.87421 7.69751 3.69499 16.3197C3.60484 20.6643 5.22214 24.6261 7.9137 27.5766H7.88365L8.18843 27.8675C8.51683 28.2104 8.86025 28.537 9.21762 28.8496L18.461 37.6676C19.15 38.3251 20.2296 38.3251 20.9186 37.6676L30.1609 28.8496C30.5183 28.537 30.8617 28.2104 31.1912 27.8675L31.496 27.5766H31.4659C34.0867 24.705 35.6889 20.8742 35.6889 16.6647L35.69 16.6658ZM19.6909 23.7955C15.6857 23.7955 12.4393 20.5237 12.4393 16.4874C12.4393 12.451 15.6857 9.17924 19.6909 9.17924C23.696 9.17924 26.9424 12.451 26.9424 16.4874C26.9424 20.5237 23.696 23.7955 19.6909 23.7955Z" fill="#4B4BBC"></path><path d="M32.45 0H6.93065C6.38654 0 5.88536 0.296348 5.61921 0.775479L0.442141 10.105C0.285455 10.3873 0.20282 10.7053 0.20282 11.0287V12.6424C0.20282 13.8061 1.94783 14.7492 4.10065 14.7492C6.25347 14.7492 7.99847 13.8061 7.99847 12.6424C7.99847 13.8061 9.74348 14.7492 11.8963 14.7492C14.0491 14.7492 15.7941 13.8061 15.7941 12.6424C15.7941 13.8061 17.5391 14.7492 19.692 14.7492C21.8448 14.7492 23.5898 13.8061 23.5898 12.6424C23.5898 13.8061 25.3348 14.7492 27.4876 14.7492C29.6404 14.7492 31.3854 13.8061 31.3854 12.6424C31.3854 13.8061 33.1304 14.7492 35.2833 14.7492C37.4361 14.7492 39.1811 13.8061 39.1811 12.6424V11.0287C39.1811 10.7053 39.0984 10.3873 38.9418 10.105L33.7615 0.775479C33.4964 0.297429 32.9941 0 32.45 0Z" fill="#FCE170"></path><path d="M5.61921 0.775479L0.442141 10.105C0.285455 10.3873 0.20282 10.7053 0.20282 11.0287V12.6424C0.20282 13.8061 1.94783 14.7492 4.10065 14.7492C6.25346 14.7492 7.99847 13.8061 7.99847 12.6424V10.6025C7.99847 10.5582 8.00598 10.5139 8.02208 10.4717L11.8952 0H6.93065C6.38654 0 5.88536 0.296348 5.61921 0.775479Z" fill="#F9CB00"></path><path d="M7.99847 10.5354V12.6423C7.99847 13.806 9.74348 14.7492 11.8963 14.7492C14.0491 14.7492 15.7941 13.806 15.7941 12.6423V10.5354H7.99955H7.99847Z" fill="#FCE170"></path><path d="M23.5876 10.5354V12.6423C23.5876 13.806 25.3326 14.7492 27.4854 14.7492C29.6383 14.7492 31.3833 13.806 31.3833 12.6423V10.5354H23.5887H23.5876Z" fill="#FCE170"></path><path d="M22.6132 0H16.7675L15.7931 10.5355V12.6424C15.7931 13.8061 17.5381 14.7492 19.6909 14.7492C21.8437 14.7492 23.5887 13.8061 23.5887 12.6424V10.5355L22.6132 0Z" fill="#F9CB00"></path><path d="M32.45 0H27.4854L31.3833 10.5355V12.6424C31.3833 13.8061 33.1283 14.7492 35.2811 14.7492C37.4339 14.7492 39.1789 13.8061 39.1789 12.6424V11.0287C39.1789 10.7053 39.0963 10.3873 38.9396 10.105L33.7615 0.775479C33.4964 0.297429 32.9941 0 32.45 0Z" fill="#F9CB00"></path><path d="M0.578436 10.5354C0.371311 10.5354 0.20282 10.7052 0.20282 10.9139V12.6423C0.20282 13.806 1.94783 14.7492 4.10065 14.7492C6.25347 14.7492 7.99847 13.806 7.99847 12.6423V10.5354H0.578436Z" fill="#F9CB00"></path><path d="M15.7931 10.5354V12.6423C15.7931 13.806 17.5381 14.7492 19.6909 14.7492C21.8437 14.7492 23.5887 13.806 23.5887 12.6423V10.5354H15.7941H15.7931Z" fill="#F9CB00"></path><path d="M31.3833 10.5354V12.6423C31.3833 13.806 33.1283 14.7492 35.2811 14.7492C37.4339 14.7492 39.1789 13.806 39.1789 12.6423V10.9139C39.1789 10.7052 39.0104 10.5354 38.8033 10.5354H31.3843H31.3833Z" fill="#F9CB00"></path></g><defs><clipPath id="clip0_2297_17803"><rect width="141" height="39" fill="white"></rect></clipPath></defs></svg>