<svg width="23" height="21" viewBox="0 0 23 21" fill="none" xmlns="http://www.w3.org/2000/svg">
<path d="M16.4999 9.30537C16.4999 8.95937 16.4999 8.78637 16.5519 8.63237C16.7029 8.18437 17.1019 8.01137 17.5019 7.82937C17.9499 7.62437 18.1739 7.52237 18.3969 7.50437C18.6489 7.48437 18.9019 7.53837 19.1179 7.65937C19.4039 7.81937 19.6039 8.12537 19.8079 8.37337C20.7509 9.51937 21.2229 10.0924 21.3949 10.7234C21.5349 11.2334 21.5349 11.7674 21.3949 12.2764C21.1439 13.1984 20.3489 13.9704 19.7599 14.6864C19.4589 15.0514 19.3079 15.2344 19.1179 15.3414C18.8982 15.4632 18.6473 15.5172 18.3969 15.4964C18.1739 15.4784 17.9499 15.3764 17.5009 15.1714C17.1009 14.9894 16.7029 14.8164 16.5519 14.3684C16.4999 14.2144 16.4999 14.0414 16.4999 13.6954V9.30537ZM6.49991 9.30537C6.49991 8.86937 6.48791 8.47837 6.13591 8.17237C6.00791 8.06137 5.83791 7.98437 5.49891 7.82937C5.04991 7.62537 4.82591 7.52237 4.60291 7.50437C3.93591 7.45037 3.57691 7.90637 3.19291 8.37437C2.24891 9.51937 1.77691 10.0924 1.60391 10.7244C1.46471 11.2327 1.46471 11.7691 1.60391 12.2774C1.85591 13.1984 2.65191 13.9714 3.23991 14.6864C3.61091 15.1364 3.96591 15.5474 4.60291 15.4964C4.82591 15.4784 5.04991 15.3764 5.49891 15.1714C5.83891 15.0174 6.00791 14.9394 6.13591 14.8284C6.48791 14.5224 6.49991 14.1314 6.49991 13.6964V9.30537Z" stroke="#7C8084" stroke-width="1.5" stroke-linecap="round" stroke-linejoin="round"/>
<path d="M4.5 7.5C4.5 4.186 7.634 1.5 11.5 1.5C15.366 1.5 18.5 4.186 18.5 7.5M18.5 15.5V16.3C18.5 18.067 16.71 19.5 14.5 19.5H12.5" stroke="#7C8084" stroke-width="1.5" stroke-linecap="round" stroke-linejoin="round"/>
</svg>
