<svg width="21" height="17" viewBox="0 0 21 17" fill="none" xmlns="http://www.w3.org/2000/svg">
<path d="M2.5 16.5C1.95 16.5 1.47933 16.3043 1.088 15.913C0.696667 15.5217 0.500667 15.0507 0.5 14.5V2.5C0.5 1.95 0.696 1.47933 1.088 1.088C1.48 0.696666 1.95067 0.500667 2.5 0.5H18.5C19.05 0.5 19.521 0.696 19.913 1.088C20.305 1.48 20.5007 1.95067 20.5 2.5V14.5C20.5 15.05 20.3043 15.521 19.913 15.913C19.5217 16.305 19.0507 16.5007 18.5 16.5H2.5ZM10.5 9.5L2.5 4.5V14.5H18.5V4.5L10.5 9.5ZM10.5 7.5L18.5 2.5H2.5L10.5 7.5ZM2.5 4.5V2.5V14.5V4.5Z" fill="#7C8084"/>
</svg>
