<svg width="24" height="24" viewBox="0 0 24 24" xmlns="http://www.w3.org/2000/svg">
<path d="M21.9936 6.00178C21.9179 6.25394 21.7279 6.43025 21.5546 6.61388C21.13 7.06276 20.6749 7.48181 20.1801 7.85745C20.0443 7.96051 20.0068 8.0709 20.0057 8.23308C19.9789 12.7815 17.9556 16.2365 13.9401 18.5337C11.7816 19.7684 9.41051 20.1864 6.91655 19.9269C5.22009 19.7506 3.64171 19.2384 2.17496 18.393C2.11592 18.359 2.05957 18.3197 2 18.2575C4.20684 18.472 6.15392 17.8646 7.95073 16.5279C7.44303 16.4552 6.99973 16.384 6.57683 16.225C5.45409 15.8023 4.68395 15.0363 4.23582 13.9555C4.12794 13.6955 4.13546 13.6986 4.41131 13.7242C4.9013 13.7703 5.39022 13.7718 5.94139 13.618C3.81774 13.0541 2.73311 11.7524 2.67729 9.61424C3.25101 9.85908 3.79252 10.0997 4.40273 10.0778C4.40434 10.0867 4.40648 10.0956 4.40809 10.1044C4.4097 10.1003 4.41453 10.094 4.41292 10.0924C4.40863 10.0877 4.40219 10.0851 4.39682 10.0814C4.16229 9.7759 3.85424 9.5342 3.61756 9.22867C2.85762 8.24773 2.50341 7.17262 2.79483 5.9458C2.89143 5.53877 3.04921 5.15163 3.24457 4.86651C3.56175 5.14117 3.88966 5.40903 4.19932 5.69572C5.95964 7.32434 8.05109 8.31522 10.4195 8.77613C10.8053 8.85146 11.1934 8.9064 11.5846 8.94773C11.7671 8.96656 11.8159 8.92628 11.7843 8.73898C11.4419 6.73526 12.5791 4.85186 14.5605 4.22406C16.0949 3.73804 17.4897 4.04932 18.6914 5.10612C18.8459 5.24162 18.9656 5.27719 19.1599 5.21389C19.8635 4.98474 20.5579 4.73571 21.2277 4.42234C21.3061 4.38572 21.3769 4.32607 21.5111 4.33706C21.2476 5.30073 20.5397 5.91284 19.7513 6.52494C20.4383 6.44961 21.0452 6.28324 21.6453 6.08548C21.7596 6.04782 21.8664 5.96515 22 6.00648L21.9936 6.00178Z"/>
</svg>