<svg width="24" height="24" viewBox="0 0 24 24" xmlns="http://www.w3.org/2000/svg">
<path d="M11.7837 15.8148C12.6484 16.2744 13.5675 16.6572 14.5811 16.6856C15.3512 16.7156 15.9949 16.4345 16.5482 15.9208C16.9835 15.5163 17.0463 14.9833 17.0639 14.4354C17.0681 14.2936 16.9944 14.1977 16.8747 14.1384C16.737 14.0703 16.5997 14.0013 16.4624 13.9324C15.9059 13.6531 15.3494 13.3737 14.7686 13.1443C14.5485 13.0567 14.3987 13.1226 14.2631 13.2986C14.1561 13.4371 14.0462 13.5732 13.9363 13.7093C13.8107 13.8649 13.6851 14.0204 13.5641 14.1793C13.3933 14.4037 13.2092 14.4312 12.9472 14.3228C11.7184 13.8157 10.7206 13.0292 9.95301 11.9475C9.69549 11.5844 9.56721 11.4056 9.57332 11.2314C9.57932 11.0603 9.71514 10.8937 9.98565 10.5613C10.0903 10.4329 10.1857 10.2952 10.2694 10.1526C10.3732 9.97664 10.3866 9.79649 10.3004 9.59716C10.1509 9.25159 10.0071 8.90362 9.86333 8.55566C9.75343 8.28972 9.64354 8.0238 9.53113 7.75896L9.53063 7.7578C9.46633 7.60719 9.39928 7.45017 9.23564 7.37114C8.85227 7.18515 8.07798 7.34862 7.76659 7.67973C6.83996 8.66639 6.64576 9.91659 7.32881 11.2185C8.35672 13.1785 9.81154 14.7656 11.7837 15.8148Z"/>
<path fill-rule="evenodd" clip-rule="evenodd" d="M13.135 2H10.7938C10.5321 2.1227 10.2519 2.16826 9.97134 2.21388C9.80944 2.24021 9.64743 2.26656 9.48878 2.30776C3.39829 3.88991 0.271851 10.7056 3.09109 16.3086C3.29784 16.7198 3.33718 17.0717 3.20409 17.5171C2.9157 18.4804 2.65443 19.4524 2.39318 20.4244C2.28438 20.8292 2.17559 21.2339 2.06484 21.638C2.05813 21.6626 2.05038 21.6869 2.04265 21.7113C2.01278 21.8052 1.98303 21.8988 2.01295 22.0008H2.18036C2.81365 21.7853 3.46249 21.6241 4.11113 21.4629C4.68508 21.3202 5.25887 21.1776 5.82159 20.9975C6.69633 20.7173 7.45387 20.7623 8.35204 21.1193C14.2165 23.4479 20.6276 19.8766 21.8095 13.6972C21.829 13.5951 21.8383 13.4908 21.8475 13.3865C21.8669 13.1682 21.8863 12.9499 21.9996 12.7506V11.1676C21.888 10.9049 21.8567 10.6268 21.8253 10.3487C21.8082 10.1969 21.7911 10.0451 21.761 9.89574C20.934 5.77898 17.4359 2.5563 13.2572 2.0809C13.1995 2.07423 13.1501 2.06589 13.135 2ZM5.21648 19.4092C4.94558 19.4784 4.66964 19.5489 4.38686 19.6222C4.45928 19.3582 4.52899 19.1002 4.59751 18.8465C4.76976 18.2088 4.9345 17.5989 5.11595 16.9933C5.19966 16.7148 5.16282 16.5037 5.01466 16.2585C3.4912 13.7348 3.32295 11.1126 4.53586 8.42952C5.99152 5.20851 9.41428 3.35196 13.0831 3.75229C16.449 4.11843 19.3954 6.84153 20.081 10.2193C21.1282 15.3803 17.2099 20.1726 11.9548 20.1509C10.4614 20.1443 9.0761 19.7281 7.79205 18.9791C7.58362 18.8574 7.407 18.8282 7.16927 18.8949C6.53127 19.0733 5.88944 19.2373 5.21648 19.4092Z"/>
</svg>