<svg xmlns="http://www.w3.org/2000/svg" viewBox="0 0 24 24" width="24" height="24"><path d="M15.13 11.9999C15.1197 12.8278 14.7869 13.6189 14.2024 14.2053C13.6179 14.7917 12.8278 15.127 12 15.1399C11.1654 15.1399 10.3646 14.8097 9.77259 14.2214C9.18055 13.6331 8.84529 12.8345 8.84001 11.9999C8.81587 11.572 8.87931 11.1436 9.02645 10.7411C9.1736 10.3385 9.40134 9.97023 9.69575 9.65874C9.99017 9.34725 10.345 9.09912 10.7387 8.92954C11.1323 8.75996 11.5564 8.67249 11.985 8.67249C12.4136 8.67249 12.8377 8.75996 13.2313 8.92954C13.625 9.09912 13.9798 9.34725 14.2743 9.65874C14.5687 9.97023 14.7964 10.3385 14.9436 10.7411C15.0907 11.1436 15.1541 11.572 15.13 11.9999ZM22 7.5299V7.9999C22 10.8199 22 13.6499 22 16.4599C22.012 17.2767 21.8382 18.0855 21.4917 18.8252C21.1452 19.5649 20.6351 20.2162 20 20.7299C19.0138 21.5765 17.7495 22.0288 16.45 21.9999H16.13C13.27 21.9999 10.41 21.9999 7.54001 21.9999C6.80826 21.9999 6.08375 21.855 5.40833 21.5735C4.7329 21.2919 4.11995 20.8794 3.60485 20.3596C3.08975 19.8399 2.68273 19.2233 2.40728 18.5453C2.13182 17.8674 1.9934 17.1416 2.00001 16.4099V7.6499C1.96136 6.32208 2.40547 5.02527 3.25001 3.9999C4.01393 3.06194 5.07018 2.40706 6.25001 2.1399C6.68556 2.03673 7.13252 1.98968 7.58001 1.9999H16.4C17.2214 1.99483 18.0338 2.17151 18.779 2.51728C19.5241 2.86305 20.1835 3.36935 20.71 3.9999C21.556 4.97996 22.0147 6.23532 22 7.5299ZM17.13 11.9999C17.132 10.9801 16.8311 9.98258 16.2655 9.13393C15.7 8.28527 14.8952 7.62364 13.9531 7.23291C13.0111 6.84218 11.9743 6.73994 10.9741 6.93915C9.97385 7.13836 9.05531 7.63005 8.33487 8.35189C7.61443 9.07374 7.12453 9.99323 6.92727 10.9938C6.73001 11.9944 6.83427 13.031 7.22683 13.9723C7.6194 14.9136 8.28259 15.7171 9.13235 16.281C9.98211 16.8449 10.9802 17.1439 12 17.1399C13.3599 17.132 14.6616 16.5876 15.6223 15.6251C16.5829 14.6626 17.1248 13.3598 17.13 11.9999ZM19 6.5099C18.9974 6.11195 18.8389 5.73088 18.5584 5.44855C18.2779 5.16621 17.8979 5.00513 17.5 4.9999C17.2038 4.99991 16.9142 5.08764 16.6677 5.25202C16.4212 5.41641 16.229 5.65009 16.1152 5.92359C16.0014 6.1971 15.9711 6.49819 16.0281 6.78888C16.0852 7.07958 16.2271 7.34686 16.4359 7.55703C16.6446 7.76721 16.911 7.91085 17.2013 7.96985C17.4916 8.02885 17.7929 8.00057 18.0671 7.88857C18.3414 7.77657 18.5763 7.58587 18.7424 7.34052C18.9084 7.09516 18.998 6.80614 19 6.5099Z"/>
</svg>
